<svg width="40" height="40" viewBox="0 0 40 40" fill="none" xmlns="http://www.w3.org/2000/svg">
<rect width="40" height="40" fill="#F5F5F5"/>
<g clip-path="url(#clip0_1_12)">
<rect width="1440" height="3787" transform="translate(-118 -1440)" fill="white"/>
<g clip-path="url(#clip1_1_12)">
<rect width="1440" height="2637" transform="translate(-118 -290)" fill="url(#paint0_linear_1_12)"/>
<path d="M12.5001 15.1333V17.6333" stroke="#9B8DFF" stroke-width="2.5" stroke-linecap="round" stroke-linejoin="round"/>
<path d="M27.5001 15.1333V17.6333" stroke="#9B8DFF" stroke-width="2.5" stroke-linecap="round" stroke-linejoin="round"/>
<path d="M18.3333 22.6617H19.1666C20.0866 22.6617 20.8333 21.915 20.8333 20.995V15.1617" stroke="#9B8DFF" stroke-width="2.5" stroke-linecap="round" stroke-linejoin="round"/>
<path d="M25.4034 26.9283C22.4201 29.9117 17.5817 29.9117 14.5984 26.9283" stroke="#9B8DFF" stroke-width="2.5" stroke-linecap="round" stroke-linejoin="round"/>
<path d="M12.6467 5H8.33333C6.49167 5 5 6.49167 5 8.33333V12.6467" stroke="#9B8DFF" stroke-width="2.5" stroke-linecap="round" stroke-linejoin="round"/>
<path d="M27.3533 35H31.6666C33.5083 35 34.9999 33.5083 34.9999 31.6667V27.3533" stroke="#9B8DFF" stroke-width="2.5" stroke-linecap="round" stroke-linejoin="round"/>
<path d="M5 27.3533V31.6667C5 33.5083 6.49167 35 8.33333 35H12.6467" stroke="#9B8DFF" stroke-width="2.5" stroke-linecap="round" stroke-linejoin="round"/>
<path d="M34.9999 12.6467V8.33333C34.9999 6.49167 33.5083 5 31.6666 5H27.3533" stroke="#9B8DFF" stroke-width="2.5" stroke-linecap="round" stroke-linejoin="round"/>
</g>
</g>
<defs>
<linearGradient id="paint0_linear_1_12" x1="-187" y1="-924.313" x2="1676.5" y2="-938.398" gradientUnits="userSpaceOnUse">
<stop stop-color="#000205"/>
<stop offset="1" stop-color="#000205"/>
</linearGradient>
<clipPath id="clip0_1_12">
<rect width="1440" height="3787" fill="white" transform="translate(-118 -1440)"/>
</clipPath>
<clipPath id="clip1_1_12">
<rect width="1440" height="2637" fill="white" transform="translate(-118 -290)"/>
</clipPath>
</defs>
</svg>
